<?xml version="1.0" encoding="utf-8"?>
<!-- Generator: Adobe Illustrator 19.0.0, SVG Export Plug-In . SVG Version: 6.00 Build 0)  -->
<svg version="1.1" id="图层_1" xmlns="http://www.w3.org/2000/svg" xmlns:xlink="http://www.w3.org/1999/xlink" x="0px" y="0px"
	 viewBox="0 0 100 28" style="enable-background:new 0 0 100 28;" xml:space="preserve" width="100" height="28">
<style type="text/css">
	.st0{fill:#FFFFFF;}
	.st1{fill:#1C9867;}
</style>
<g id="XMLID_26_">
	<polygon id="XMLID_25_" class="st0" points="11,2.3 5,5.7 2.1,9.5 2.1,14 3.7,19.9 7.9,24.5 16,27.1 24.2,25.4 29.2,20.1 31.7,14 
		30,7.5 25.1,3 19.6,1.3 14,1.3 	"/>
	<g id="XMLID_47_">
		<g id="XMLID_57_">
			<path id="XMLID_58_" class="st1" d="M7.3,9.4c1.9-0.9,4.7-0.1,5,1.9c0.6,1.9-1.5,3.9-3.9,3.4C5.4,14.5,4.6,10.6,7.3,9.4z"/>
		</g>
		<g id="XMLID_54_">
			<path id="XMLID_55_" class="st1" d="M22.8,9.3c2.1-0.8,4.9,0.6,4.7,2.6c0.2,2.3-3.3,3.7-5.4,2.3C20.1,13,20.5,10,22.8,9.3z"/>
		</g>
		<path id="XMLID_48_" class="st1" d="M33,5.6c-1.5,0-2.9,0.1-4.4-0.1c-0.9-2.1-2.2-4.1-4.2-5.4c-0.5,0.8-1.1,1.3-1.5,1.5
			C19,0,14.2-0.1,10.3,1.6C9.8,1.3,9.2,0.9,8.8,0.1C6.3,1.6,5,3.5,4,5.5c-1.3,0.2-2.7,0-4,0.3c0.4,1,1.2,1.8,2.4,2.2
			c-1.7,2-2.7,4.5-1.8,6.9c1.2,3,3.2,5.9,2.9,9.2c1-0.1,2.2-0.5,2.9,0.3c3.3,2.9,8.4,4.3,13.1,3.4c3.2-0.5,5.9-2.1,8.2-4
			c0.7,0.1,1.4,0.2,2.1,0.3c-0.4-3.3,1.6-6.3,2.8-9.3c0.8-2.4-0.2-4.8-1.7-6.7C32.1,7.5,32.9,6.7,33,5.6z M25.1,5.4
			c-1.7,0.2-3.4,0.2-4.9,0.9c-1.5,0.6-2.5,1.7-3.5,2.8c-1.1-1.1-2.2-2.2-3.8-2.9c-1.5-0.6-3.3-0.7-4.9-0.8
			C12.3,1.4,20.8,1.2,25.1,5.4z M2.7,13.7C2.1,11,4.4,8,7.7,7.5c3.2-0.6,6.7,1.1,7.5,3.9c1.2,3.2-1.9,6.9-5.9,6.9
			C6.1,18.5,3.1,16.4,2.7,13.7z M17.3,26c-5.1,0.3-10.2-2.4-12.1-6.4c0.9,0.2,1.8,0.3,2.5,0.8c2.5-0.1,4.9-0.6,7-1.7
			c0.6,0.9,1.2,1.8,1.8,2.8c0.7-0.9,1.3-1.9,2-2.8c2,1.2,4.5,1.7,6.9,1.7c0.6-0.5,1.5-0.4,2.3-0.6C26.1,23.3,21.8,25.8,17.3,26z
			 M24.4,18.3c-3.3,0.2-6.4-2.1-6.6-4.9c-0.4-2.7,2-5.3,5-5.9c3.5-0.6,7.2,1.5,7.6,4.5C31.2,15.1,28.1,18.3,24.4,18.3z"/>
	</g>
	<g id="XMLID_27_">
		<rect id="XMLID_17_" x="38.8" y="5.2" class="st0" width="1.9" height="8.5"/>
		<path id="XMLID_16_" class="st0" d="M48.8,8.1H57V6.2h-7.4c0-0.3,0.1-0.6,0.1-1h-1.9c-0.1,0.7-0.2,1.2-0.4,1.5
			c-0.1,0.2-0.4,0.4-0.7,0.5v1.9c0.4-0.1,0.8-0.2,1-0.3C48,8.7,48.4,8.5,48.8,8.1z"/>
		<rect id="XMLID_15_" x="43.2" y="5.2" class="st0" width="1.9" height="8.4"/>
		<rect id="XMLID_14_" x="46.9" y="11" class="st0" width="9.9" height="1.8"/>
		<path id="XMLID_13_" class="st0" d="M75.5,9.5h-2.1v0.1c0,0.1,0.1,0.4,0.4,0.9c0.4,0.8,0.8,1.4,1.3,1.8c0.8,0.7,1.8,1.1,3.2,1.2
			v-1.9c-0.8-0.1-1.4-0.3-1.8-0.7C76.1,10.7,75.8,10.2,75.5,9.5z"/>
		<path id="XMLID_12_" class="st0" d="M70.9,9.5h-2.1c-0.2,0.7-0.5,1.1-0.9,1.4c-0.4,0.3-1,0.5-1.8,0.7v1.9c1.2-0.1,2.2-0.5,3-1.1
			C69.9,11.8,70.5,10.8,70.9,9.5z"/>
		<path id="XMLID_36_" class="st0" d="M63.8,9.3h1.7v-2h-1.7V5.2h-1.9v2.1H59v2h2.8v4.4c-0.6,0.3-1,0.5-1.3,0.6
			c-0.3,0.1-0.8,0.2-1.5,0.4v2c0.7-0.1,1.1-0.2,1.4-0.2c0.3-0.1,0.8-0.3,1.4-0.5v3.9c0,0.3-0.1,0.5-0.4,0.8
			c-0.2,0.2-0.6,0.3-1.1,0.3h-0.5h-3.6v-4.5c0-0.5-0.2-0.9-0.5-1.2c-0.4-0.4-0.9-0.5-1.6-0.5H40.9c-1.4,0-2.1,0.6-2.1,1.9v4.4h-0.8
			v1.9h21.9h1c0.7,0,1.4-0.2,1.9-0.5c0.7-0.5,1.1-1.2,1.1-2.3v-5.4c0.6-0.4,1.2-0.6,1.8-0.9v-1.9c-0.6,0.2-1.2,0.4-1.8,0.7V9.3z
			 M43.8,20.9h-3.2l0-3.7c0-0.5,0.3-0.7,0.8-0.7h2.4V20.9z M49.1,20.9h-3.4v-4.4h3.4V20.9z M54.3,20.9H51v-4.4l2.5,0
			c0.3,0,0.5,0,0.6,0.1c0.1,0.1,0.2,0.2,0.2,0.4L54.3,20.9z"/>
		<path id="XMLID_7_" class="st0" d="M68,8.9c0-0.3,0.1-0.6,0.2-0.7c0.1-0.1,0.3-0.1,0.7-0.1h6.7c0.5,0,0.8,0.2,0.8,0.5v0.8h1.9V8.3
			c0-0.8-0.2-1.3-0.5-1.7c-0.3-0.3-0.8-0.5-1.4-0.5h-3.2v-1h-1.9v1h-3.5c-0.4,0-0.8,0.2-1.1,0.5C66.2,7,66,7.6,66,8.4v1H68V8.9z"/>
		<path id="XMLID_6_" class="st0" d="M99.3,14.5c-0.5-0.5-1.2-0.7-2.2-0.7H84.2l0.2-0.7h-2c-0.2,0.6-0.3,1.1-0.5,1.5
			c-0.2,0.4-0.6,0.8-1.1,1v1.9c0.7-0.1,1.3-0.4,1.8-0.7c0.3-0.2,0.6-0.6,0.9-1h13.4c0.4,0,0.7,0.1,0.9,0.3c0.2,0.2,0.3,0.5,0.3,0.8
			v2.6c0,0.9-0.4,1.3-1.3,1.3h-2.1l0,1.9l2.5,0c0.9,0,1.6-0.2,2.1-0.7c0.5-0.5,0.8-1.2,0.8-2.1v-3.5C100,15.6,99.8,15,99.3,14.5z"/>
		<path id="XMLID_5_" class="st0" d="M90.3,18.8c-0.4,0.7-0.9,1.2-1.3,1.4c-0.4,0.3-1,0.5-1.7,0.5v1.9c1.6-0.1,2.9-0.7,3.9-1.8
			c0.3-0.3,0.6-0.8,1.1-1.6l1.7-2.8h-2.2L90.3,18.8z"/>
		<path id="XMLID_4_" class="st0" d="M85.5,16.5l-1.7,2.7c-0.6,1-1.6,1.5-2.8,1.5h-7.8v-4h5v-1.9H66.3v1.9h5v4h-5v1.9h14.6
			c0.4,0,0.7,0,0.9-0.1c0.6-0.1,1.2-0.3,1.8-0.7c0.7-0.4,1.4-1.2,2-2.2l2-3.2H85.5z"/>
		<path id="XMLID_28_" class="st0" d="M83.2,12.8h14.2c0.5,0,0.9-0.1,1.3-0.4c0.4-0.4,0.7-0.8,0.7-1.5V6.8c0-0.6-0.2-1-0.7-1.4
			c-0.4-0.3-1-0.4-1.8-0.4H83.5c-1.3,0-2,0.7-2,2.1v3.6c0,0.5,0.1,1,0.2,1.2C82.1,12.5,82.6,12.8,83.2,12.8z M83.5,7.6
			c0-0.1,0.1-0.3,0.2-0.4C83.8,7,83.9,7,84.1,7h12.6c0.5,0,0.7,0.2,0.7,0.6V8H83.5V7.6z M83.5,9.9h13.9v0.4c0,0.4-0.2,0.6-0.7,0.6
			H84.3c-0.4,0-0.6-0.1-0.7-0.2c-0.1-0.1-0.1-0.3-0.1-0.5V9.9z"/>
	</g>
</g>
</svg>
