<svg xmlns="http://www.w3.org/2000/svg" xmlns:xlink="http://www.w3.org/1999/xlink" version="1.1" id="图层_1" x="0px" y="0px" viewBox="0 0 33 28" style="enable-background:new 0 0 33 28;" xml:space="preserve" width="33" height="28">
<style type="text/css">
	.st0{fill:#FFFFFF;}
	.st1{fill:#1C9867;}
</style>
<g id="XMLID_26_">
	<polygon id="XMLID_25_" class="st0" points="11,2.3 5,5.7 2.1,9.5 2.1,14 3.7,19.9 7.9,24.5 16,27.1 24.2,25.4 29.2,20.1 31.7,14    30,7.5 25.1,3 19.6,1.3 14,1.3  "/>
	<g id="XMLID_47_">
		<g id="XMLID_57_">
			<path id="XMLID_58_" class="st1" d="M7.3,9.4c1.9-0.9,4.7-0.1,5,1.9c0.6,1.9-1.5,3.9-3.9,3.4C5.4,14.5,4.6,10.6,7.3,9.4z"/>
		</g>
		<g id="XMLID_54_">
			<path id="XMLID_55_" class="st1" d="M22.8,9.3c2.1-0.8,4.9,0.6,4.7,2.6c0.2,2.3-3.3,3.7-5.4,2.3C20.1,13,20.5,10,22.8,9.3z"/>
		</g>
		<path id="XMLID_48_" class="st1" d="M33,5.6c-1.5,0-2.9,0.1-4.4-0.1c-0.9-2.1-2.2-4.1-4.2-5.4c-0.5,0.8-1.1,1.3-1.5,1.5    C19,0,14.2-0.1,10.3,1.6C9.8,1.3,9.2,0.9,8.8,0.1C6.3,1.6,5,3.5,4,5.5c-1.3,0.2-2.7,0-4,0.3c0.4,1,1.2,1.8,2.4,2.2    c-1.7,2-2.7,4.5-1.8,6.9c1.2,3,3.2,5.9,2.9,9.2c1-0.1,2.2-0.5,2.9,0.3c3.3,2.9,8.4,4.3,13.1,3.4c3.2-0.5,5.9-2.1,8.2-4    c0.7,0.1,1.4,0.2,2.1,0.3c-0.4-3.3,1.6-6.3,2.8-9.3c0.8-2.4-0.2-4.8-1.7-6.7C32.1,7.5,32.9,6.7,33,5.6z M25.1,5.4    c-1.7,0.2-3.4,0.2-4.9,0.9c-1.5,0.6-2.5,1.7-3.5,2.8c-1.1-1.1-2.2-2.2-3.8-2.9c-1.5-0.6-3.3-0.7-4.9-0.8    C12.3,1.4,20.8,1.2,25.1,5.4z M2.7,13.7C2.1,11,4.4,8,7.7,7.5c3.2-0.6,6.7,1.1,7.5,3.9c1.2,3.2-1.9,6.9-5.9,6.9    C6.1,18.5,3.1,16.4,2.7,13.7z M17.3,26c-5.1,0.3-10.2-2.4-12.1-6.4c0.9,0.2,1.8,0.3,2.5,0.8c2.5-0.1,4.9-0.6,7-1.7    c0.6,0.9,1.2,1.8,1.8,2.8c0.7-0.9,1.3-1.9,2-2.8c2,1.2,4.5,1.7,6.9,1.7c0.6-0.5,1.5-0.4,2.3-0.6C26.1,23.3,21.8,25.8,17.3,26z     M24.4,18.3c-3.3,0.2-6.4-2.1-6.6-4.9c-0.4-2.7,2-5.3,5-5.9c3.5-0.6,7.2,1.5,7.6,4.5C31.2,15.1,28.1,18.3,24.4,18.3z"/>
	</g>
	
</g>
</svg>