<?xml version="1.0" encoding="utf-8"?>
<!-- Generator: Adobe Illustrator 19.0.0, SVG Export Plug-In . SVG Version: 6.00 Build 0)  -->
<svg version="1.1" id="图层_1" xmlns="http://www.w3.org/2000/svg" xmlns:xlink="http://www.w3.org/1999/xlink" x="0px" y="0px"
	 viewBox="-295 387 20 20" style="enable-background:new -295 387 20 20;" xml:space="preserve">
<style type="text/css">
	.st0{clip-path:url(#SVGID_2_);fill:#EDB845;}
</style>
<g>
	<defs>
		<rect id="SVGID_1_" x="-294.7" y="387.3" width="19.5" height="19.5"/>
	</defs>
	<clipPath id="SVGID_2_">
		<use xlink:href="#SVGID_1_"  style="overflow:visible;"/>
	</clipPath>
	<path class="st0" d="M-277,387.3H-293c-1,0-1.8,0.8-1.8,1.8V405c0,1,0.8,1.8,1.8,1.8h15.9c1,0,1.8-0.8,1.8-1.8V389
		C-275.3,388-276.1,387.3-277,387.3z M-292.2,404.3l0.3-5.2c1.2,0.1,2.4,0.6,3.4,1.5c0.9,0.9,1.4,2.2,1.5,3.4L-292.2,404.3z
		 M-284.4,403.8c-0.1-1.8-0.9-3.6-2.2-5c-1.4-1.4-3.1-2.1-5-2.2l0.2-2.5c2.4,0.1,4.8,1.1,6.6,2.9c1.8,1.8,2.8,4.2,2.9,6.7
		L-284.4,403.8z M-279.3,403.5c-0.2-3-1.4-6-3.7-8.3c-2.3-2.3-5.2-3.5-8.3-3.7l0.2-2.4c3.6,0.2,7.2,1.5,10,4.2c2.7,2.7,4,6.4,4.2,10
		L-279.3,403.5z"/>
</g>
<path d="M-321.1,396.5"/>
</svg>
