<?xml version="1.0" encoding="utf-8"?>
<!-- Generator: Adobe Illustrator 18.0.0, SVG Export Plug-In . SVG Version: 6.00 Build 0)  -->
<!DOCTYPE svg PUBLIC "-//W3C//DTD SVG 1.1//EN" "http://www.w3.org/Graphics/SVG/1.1/DTD/svg11.dtd">
<svg version="1.1" id="图层_1" xmlns="http://www.w3.org/2000/svg" xmlns:xlink="http://www.w3.org/1999/xlink" x="0px" y="0px"
	 viewBox="0 0 20 20" enable-background="new 0 0 20 20" xml:space="preserve" width="20" height="20">
<g>
	<path fill="none" d="M11.2,12.8L11.2,12.8c0,0.1-0.1,0.3-0.1,0.5s-0.2,0.8-0.4,1.8h1l-0.4-1.8C11.3,13.1,11.2,12.9,11.2,12.8z
		 M17.7,12.7h-0.4v1.7h0.4c0.5,0,0.7-0.3,0.7-0.9C18.5,13,18.2,12.7,17.7,12.7z M14.5,12.7h-0.4v1.7h0.4c0.5,0,0.7-0.3,0.7-0.9
		C15.3,13,15,12.7,14.5,12.7z M14.1,8.6c-3.3,0-6,2.7-6,6c0,3.3,2.7,6,6,6c3.3,0,6-2.7,6-6C20.1,11.2,17.4,8.6,14.1,8.6z M12.2,17.3
		L11.9,16h-1.4l-0.3,1.3H9.4l1.4-5.4h0.9l1.4,5.4H12.2z M15.7,14.9c-0.3,0.3-0.6,0.5-1.1,0.5h-0.4v1.9h-0.8v-5.4h1.3
		c0.5,0,0.8,0.1,1,0.4c0.2,0.3,0.4,0.7,0.4,1.3C16.1,14.1,15.9,14.5,15.7,14.9z M17.8,15.4h-0.4v1.9h-0.8v-5.4h1.3
		c0.5,0,0.8,0.1,1,0.4c0.2,0.3,0.4,0.7,0.4,1.3c0,0.5-0.1,1-0.4,1.3C18.6,15.2,18.2,15.4,17.8,15.4z M7.5,14.5
		c0-2.4,1.3-4.6,3.2-5.7h-8V6.7h11.6v1.2c0.8,0,1.6,0.2,2.3,0.4V2.8c0-1.1-0.9-2-2-2H2.2c-1.1,0-2,0.9-2,2v15.4c0,1.1,0.9,2,2,2h8.5
		C8.8,19,7.5,16.9,7.5,14.5z M2.8,3.4h11.6v2.1H2.8V3.4z"/>
</g>
<g>
	<g>
		<path fill="#3DB58D" d="M11.1,12.1L11.1,12.1c0,0.1-0.1,0.3-0.1,0.5s-0.2,0.8-0.4,1.8h1l-0.4-1.8C11.1,12.4,11.1,12.3,11.1,12.1z
			 M14.4,12.1H14v1.7h0.4c0.5,0,0.7-0.3,0.7-0.9C15.1,12.4,14.9,12.1,14.4,12.1z M13.9,7.9c-3.3,0-6,2.7-6,6s2.7,6,6,6
			c3.3,0,6-2.7,6-6S17.2,7.9,13.9,7.9z M12,16.6l-0.3-1.3h-1.4l-0.3,1.3H9.2l1.4-5.4h0.9l1.4,5.4H12z M15.5,14.2
			c-0.3,0.3-0.6,0.5-1.1,0.5H14v1.9h-0.8v-5.4h1.3c0.5,0,0.8,0.1,1,0.4c0.2,0.3,0.4,0.7,0.4,1.3C15.9,13.4,15.8,13.9,15.5,14.2z
			 M17.6,14.7h-0.4v1.9h-0.8v-5.4h1.3c0.5,0,0.8,0.1,1,0.4c0.2,0.3,0.4,0.7,0.4,1.3c0,0.5-0.1,1-0.4,1.3
			C18.4,14.5,18.1,14.7,17.6,14.7z M17.6,12.1h-0.4v1.7h0.4c0.5,0,0.7-0.3,0.7-0.9C18.3,12.4,18.1,12.1,17.6,12.1z M7.4,13.9
			c0-2.4,1.3-4.6,3.2-5.7h-8V6h11.6v1.2c0.8,0,1.6,0.2,2.3,0.4V2.1c0-1.1-0.9-2-2-2H2.1c-1.1,0-2,0.9-2,2v15.4c0,1.1,0.9,2,2,2h8.5
			C8.7,18.4,7.4,16.3,7.4,13.9z M2.6,2.7h11.6v2.1H2.6V2.7z"/>
	</g>
</g>
</svg>
