<?xml version="1.0" encoding="utf-8"?>
<!-- Generator: Adobe Illustrator 18.0.0, SVG Export Plug-In . SVG Version: 6.00 Build 0)  -->
<!DOCTYPE svg PUBLIC "-//W3C//DTD SVG 1.1//EN" "http://www.w3.org/Graphics/SVG/1.1/DTD/svg11.dtd">
<svg version="1.1" id="图层_1" xmlns="http://www.w3.org/2000/svg" xmlns:xlink="http://www.w3.org/1999/xlink" x="0px" y="0px"
	 viewBox="0 0 20 20" enable-background="new 0 0 20 20" xml:space="preserve" width="20" height="20">
<g>
	<g>
		<path d="M11.1,12.1L11.1,12.1c0,0.1-0.1,0.3-0.1,0.5s-0.2,0.8-0.4,1.8h1l-0.4-1.8C11.1,12.4,11.1,12.3,11.1,12.1z M13.9,7.9
			c-3.3,0-6,2.7-6,6s2.7,6,6,6c3.3,0,6-2.7,6-6S17.2,7.9,13.9,7.9z M12,16.6l-0.3-1.3h-1.4l-0.3,1.3H9.2l1.4-5.4h0.9l1.4,5.4H12z
			 M15.5,14.2c-0.3,0.3-0.6,0.5-1.1,0.5H14v1.9h-0.8v-5.4h1.3c0.5,0,0.8,0.1,1,0.4c0.2,0.3,0.4,0.7,0.4,1.3
			C15.9,13.4,15.8,13.9,15.5,14.2z M17.6,14.7h-0.4v1.9h-0.8v-5.4h1.3c0.5,0,0.8,0.1,1,0.4c0.2,0.3,0.4,0.7,0.4,1.3
			c0,0.5-0.1,1-0.4,1.3C18.4,14.5,18.1,14.7,17.6,14.7z M14.4,12.1H14v1.7h0.4c0.5,0,0.7-0.3,0.7-0.9C15.1,12.4,14.9,12.1,14.4,12.1
			z M17.6,12.1h-0.4v1.7h0.4c0.5,0,0.7-0.3,0.7-0.9C18.3,12.4,18.1,12.1,17.6,12.1z M7.4,13.9c0-2.4,1.3-4.6,3.2-5.7h-8V6h11.6v1.2
			c0.8,0,1.6,0.2,2.3,0.4V2.1c0-1.1-0.9-2-2-2H2.1c-1.1,0-2,0.9-2,2v15.4c0,1.1,0.9,2,2,2h8.5C8.7,18.4,7.4,16.3,7.4,13.9z M2.6,2.7
			h11.6v2.1H2.6V2.7z"/>
	</g>
</g>
</svg>
