<?xml version="1.0" encoding="utf-8"?>
<!-- Generator: Adobe Illustrator 18.0.0, SVG Export Plug-In . SVG Version: 6.00 Build 0)  -->
<!DOCTYPE svg PUBLIC "-//W3C//DTD SVG 1.1//EN" "http://www.w3.org/Graphics/SVG/1.1/DTD/svg11.dtd">
<svg version="1.1" id="图层_1" xmlns="http://www.w3.org/2000/svg" xmlns:xlink="http://www.w3.org/1999/xlink" x="0px" y="0px"
	 viewBox="0 0 20 20" enable-background="new 0 0 20 20" xml:space="preserve" width="20" height="20">
<g fill="#3db58d">
	<path d="M18.7,10.7c0-0.5,0-1,0-1.5c1-0.8,1.5-2.1,1-3.2l0,0c-0.3-0.7-0.8-1.2-1.5-1.5
		c-0.5-0.2-1-0.3-1.5-0.2c-0.3-0.4-0.7-0.7-1.1-1.1c0.2-1.3-0.4-2.5-1.6-3l-0.1,0c-1.2-0.5-2.5-0.1-3.3,1c-0.5,0-1,0-1.5,0
		C8.8,0.8,8.4,0.5,7.9,0.3C7.2,0,6.5,0,5.9,0.3l-0.1,0C4.8,0.8,4.2,1.9,4.3,3.2C3.9,3.6,3.6,4,3.2,4.4C1.9,4.3,0.7,4.9,0.3,6l0,0.1
		c-0.4,1.1-0.1,2.3,0.9,3.2c0,0.5-0.1,1.1,0,1.6c-1,0.8-1.4,2.2-1,3.2l0,0.1c0.2,0.6,0.7,1.1,1.4,1.3c0.5,0.2,1,0.3,1.6,0.2
		c0.3,0.4,0.7,0.8,1.1,1.1c-0.1,1.3,0.5,2.5,1.6,3l0.1,0c1.1,0.4,2.3,0,3.1-1c0.5,0,1.1,0.1,1.6,0c0.3,0.4,0.7,0.8,1.2,1
		c0.6,0.3,1.3,0.2,2,0l0.1,0c1.2-0.5,1.8-1.7,1.6-3c0.4-0.3,0.7-0.7,1-1c1.3,0.2,2.6-0.4,3-1.6l0-0.1C20.2,12.8,19.8,11.5,18.7,10.7
		z M10.1,15.9c-3.3,0-6-2.7-6-6c0-3.3,2.7-6,6-6c3.3,0,6,2.7,6,6C16.1,13.2,13.4,15.9,10.1,15.9z
		M10.1,4.8c-2.8,0-5.2,2.3-5.2,5.2s2.4,5.2,5.2,5.2c0.6,0,1.2-0.1,1.8-0.4l-1-1
		c-0.6,0.1-1.2,0.1-1.8,0c-0.7-0.2-1.3-0.5-1.8-1.1C6.5,12,6.2,11,6.2,10c0-0.4,0.1-0.9,0.3-1.3c0-0.1,0.1-0.2,0.1-0.2
		c0.2-0.2,0.6-0.2,0.8,0l1.3,1.3c0,0,0,0,0.1,0.1c0.4,0.4,1,0.3,1.3,0c0.4-0.4,0.4-0.9,0-1.3c0,0,0,0-0.1-0.1L8.7,7.1
		C8.4,6.9,8.4,6.5,8.6,6.3c0.1-0.1,0.2-0.1,0.2-0.1C9.2,6,9.7,6,10.1,6c1.1,0,2,0.4,2.8,1.1C13.4,7.7,13.8,8.3,14,9
		c0.2,0.6,0.2,1.2,0,1.8l1,1c0.2-0.5,0.4-1.1,0.4-1.8C15.3,7.1,12.9,4.8,10.1,4.8z"/>
</g>
</svg>
