<?xml version="1.0" encoding="utf-8"?>
<!-- Generator: Adobe Illustrator 19.0.0, SVG Export Plug-In . SVG Version: 6.00 Build 0)  -->
<svg version="1.1" id="图层_1" xmlns="http://www.w3.org/2000/svg" xmlns:xlink="http://www.w3.org/1999/xlink" x="0px" y="0px"
	 viewBox="-39 5 20 20" style="enable-background:new -39 5 20 20;" xml:space="preserve">
<style type="text/css">
	.st0{fill:#EDB945;}
</style>
<path class="st0" d="M-28.9,21.8c4.5,0,8.1-3.7,8.1-8.3s-3.7-8.4-8.1-8.4S-37,8.8-37,13.4S-33.4,21.8-28.9,21.8z M-28.9,6.6
	c3.7,0,6.6,3.1,6.6,6.9s-3,6.9-6.6,6.9c-3.7,0-6.6-3.1-6.6-6.9C-35.6,9.6-32.6,6.6-28.9,6.6z"/>
<path class="st0" d="M-22.1,20.2c-0.4-0.2-0.8,0-0.9,0.4c-0.1,0.3,0,0.7,0.3,0.9c0.5,0.3,0.6,0.5,0.6,0.5c0,0.5-2.4,1.6-6.8,1.6
	c-4.3,0-6.7-1.1-6.8-1.6c0,0,0.1-0.2,0.6-0.5c0.3-0.2,0.5-0.6,0.3-1c-0.2-0.3-0.6-0.4-0.9-0.3c-1.1,0.6-1.3,1.3-1.3,1.8
	c0,2.1,4.2,3,8.2,3s8.2-0.9,8.2-3C-20.7,21.5-21,20.8-22.1,20.2L-22.1,20.2z M-28.9,17.3c2.2,0,3.9-1.8,3.9-3.9s-1.8-3.9-3.9-3.9
	s-3.9,1.8-3.9,3.9C-32.9,15.6-31.1,17.3-28.9,17.3L-28.9,17.3z M-30.3,10.2c0.9,0,1.6,0.7,1.6,1.6s-0.7,1.6-1.6,1.6l0,0
	c-0.9,0-1.6-0.7-1.6-1.6C-31.9,11-31.2,10.2-30.3,10.2z"/>
</svg>
