<?xml version="1.0" encoding="utf-8"?>
<!-- Generator: Adobe Illustrator 19.0.0, SVG Export Plug-In . SVG Version: 6.00 Build 0)  -->
<svg version="1.1" id="图层_1" xmlns="http://www.w3.org/2000/svg" xmlns:xlink="http://www.w3.org/1999/xlink" x="0px" y="0px"
	 viewBox="-39 5 20 20" style="enable-background:new -39 5 20 20;" xml:space="preserve">
<style type="text/css">
	.st0{fill:#61B290;}
</style>
<path class="st0" d="M-29.5,21.7c4.5,0,8.1-3.7,8.1-8.3S-25.1,5-29.5,5s-8.1,3.7-8.1,8.3S-34,21.7-29.5,21.7z M-29.5,6.5
	c3.7,0,6.6,3.1,6.6,6.9s-3,6.9-6.6,6.9c-3.7,0-6.6-3.1-6.6-6.9C-36.2,9.5-33.2,6.5-29.5,6.5z"/>
<path class="st0" d="M-22.7,20.1c-0.4-0.2-0.8,0-0.9,0.4c-0.1,0.3,0,0.7,0.3,0.9c0.5,0.3,0.6,0.5,0.6,0.5c0,0.5-2.4,1.6-6.8,1.6
	c-4.3,0-6.7-1.1-6.8-1.6c0,0,0.1-0.2,0.6-0.5c0.3-0.2,0.5-0.6,0.3-1c-0.2-0.3-0.6-0.4-0.9-0.3c-1.1,0.6-1.3,1.3-1.3,1.8
	c0,2.1,4.2,3,8.2,3c4,0,8.2-0.9,8.2-3C-21.3,21.4-21.6,20.7-22.7,20.1L-22.7,20.1z M-29.5,17.2c2.2,0,3.9-1.8,3.9-3.9
	s-1.8-3.9-3.9-3.9s-3.9,1.8-3.9,3.9C-33.5,15.5-31.7,17.2-29.5,17.2L-29.5,17.2z M-30.9,10.1c0.9,0,1.6,0.7,1.6,1.6
	s-0.7,1.6-1.6,1.6l0,0c-0.9,0-1.6-0.7-1.6-1.6C-32.5,10.9-31.8,10.1-30.9,10.1z"/>
</svg>
