<?xml version="1.0" encoding="utf-8"?>
<!-- Generator: Adobe Illustrator 18.0.0, SVG Export Plug-In . SVG Version: 6.00 Build 0)  -->
<!DOCTYPE svg PUBLIC "-//W3C//DTD SVG 1.1//EN" "http://www.w3.org/Graphics/SVG/1.1/DTD/svg11.dtd">
<svg version="1.1" id="图层_1" xmlns="http://www.w3.org/2000/svg" xmlns:xlink="http://www.w3.org/1999/xlink" x="0px" y="0px"
	 viewBox="0 0 20 20" enable-background="new 0 0 20 20" xml:space="preserve" width="20" height="20">
<g>
	<path fill="#edb845" d="M10-275.9c-157.9,0-285.9,40-285.9,89.3v71.5c0,49.3,128,89.3,285.9,89.3c157.9,0,285.9-40,285.9-89.3
		v-71.5C295.9-235.9,167.9-275.9,10-275.9L10-275.9L10-275.9z M10,27.9c-157.9,0-285.9-40-285.9-89.3V45.7
		c0,49.3,128,89.3,285.9,89.3c157.9,0,285.9-40,285.9-89.3V-61.5C295.9-12.1,167.9,27.9,10,27.9L10,27.9L10,27.9z M10,188.7
		c-157.9,0-285.9-40-285.9-89.3v107.2c0,49.3,128,89.3,285.9,89.3c157.9,0,285.9-40,285.9-89.3V99.3
		C295.9,148.7,167.9,188.7,10,188.7L10,188.7L10,188.7z M10,188.7"/>
</g>
<path fill="#edb845" d="M10,5.8c-0.5,0-0.9,0.4-1.3,0.7c-0.1,0.1-5.2,5.6-6.3,6.7v5.9c0,0.2,0.1,0.4,0.2,0.6
	c0.1,0.2,0.3,0.2,0.5,0.2h3.9c0.1,0,0.2,0,0.2-0.1c0.1-0.1,0.1-0.2,0.1-0.3l0-4.5c0-0.1,0-0.2,0.1-0.3c0.1-0.1,0.2-0.1,0.2-0.1h4.4
	c0.1,0,0.2,0,0.2,0.1c0.1,0.1,0.1,0.2,0.1,0.3v4.5c0,0.1,0,0.2,0.1,0.3c0.1,0.1,0.2,0.1,0.2,0.1h4c0.2,0,0.4-0.1,0.5-0.2
	c0.1-0.2,0.2-0.4,0.2-0.6v-5.8c-1.1-1.2-6.2-6.7-6.2-6.8C10.9,6.1,10.5,5.8,10,5.8L10,5.8L10,5.8z M20,10.9c0-0.4-0.2-0.7-0.4-1
	l-0.5-0.6c-0.3-0.3-0.6-0.7-0.9-1.1c-0.4-0.4-0.8-0.9-1.2-1.4c-0.4-0.5-0.9-1-1.4-1.6c-0.5-0.5-0.9-1-1.4-1.6
	c-0.5-0.5-0.9-1-1.2-1.4c-0.4-0.4-0.7-0.8-0.9-1.1c-0.3-0.3-0.4-0.5-0.5-0.6c-0.4-0.5-0.9-0.7-1.5-0.7c-0.6,0-1.1,0.3-1.6,0.9
	C8.3,1,8.1,1.3,7.7,1.7c-0.4,0.4-0.9,1-1.5,1.6c-0.6,0.6-1.2,1.3-1.8,2c-0.7,0.7-1.3,1.4-1.8,2C2,8,1.5,8.5,1.1,9
	C0.7,9.4,0.4,9.7,0.3,9.8C0.1,10,0,10.3,0,10.7c0,0.4,0.1,0.7,0.4,1c0.2,0.2,0.5,0.4,0.9,0.4c0.3,0,0.6-0.1,0.8-0.3
	c0.1-0.1,0.3-0.3,0.6-0.6c0.3-0.4,0.7-0.8,1.2-1.3c0.5-0.5,0.9-1,1.5-1.6c0.5-0.6,1-1.1,1.5-1.7c0.5-0.5,0.9-1,1.3-1.4
	c0.4-0.4,0.6-0.7,0.7-0.8C9.2,4,9.6,3.8,10,3.8c0.4,0,0.8,0.2,1.3,0.7c0.1,0.1,0.3,0.3,0.7,0.7c0.3,0.4,0.8,0.8,1.2,1.4
	c0.5,0.5,1,1.1,1.5,1.7c0.5,0.6,1,1.2,1.5,1.7c0.5,0.5,0.9,1,1.2,1.3c0.3,0.4,0.5,0.6,0.6,0.7c0.2,0.2,0.5,0.3,0.8,0.3
	c0.3,0,0.6-0.1,0.9-0.4C19.9,11.6,20,11.3,20,10.9L20,10.9L20,10.9z M20,10.9"/>
</svg>
