<?xml version="1.0" encoding="utf-8"?>
<!-- Generator: Adobe Illustrator 18.0.0, SVG Export Plug-In . SVG Version: 6.00 Build 0)  -->
<!DOCTYPE svg PUBLIC "-//W3C//DTD SVG 1.1//EN" "http://www.w3.org/Graphics/SVG/1.1/DTD/svg11.dtd">
<svg version="1.1" id="图层_1" xmlns="http://www.w3.org/2000/svg" xmlns:xlink="http://www.w3.org/1999/xlink" x="0px" y="0px"
	 viewBox="0 0 20 20" enable-background="new 0 0 20 20" xml:space="preserve" width="20" height="20">
<g>
	<path fill="#3db58d" d="M9.9-274.2c-157.9,0-285.9,40-285.9,89.3v71.5C-276-64-148-24,9.9-24c157.9,0,285.9-40,285.9-89.3v-71.5
		C295.7-234.2,167.8-274.2,9.9-274.2L9.9-274.2L9.9-274.2z M9.9,29.6C-148,29.6-276-10.4-276-59.8V47.4c0,49.3,128,89.3,285.9,89.3
		c157.9,0,285.9-40,285.9-89.3V-59.8C295.7-10.4,167.8,29.6,9.9,29.6L9.9,29.6L9.9,29.6z M9.9,190.4c-157.9,0-285.9-40-285.9-89.3
		v107.2c0,49.3,128,89.3,285.9,89.3c157.9,0,285.9-40,285.9-89.3V101C295.7,150.4,167.8,190.4,9.9,190.4L9.9,190.4L9.9,190.4z
		 M9.9,190.4"/>
</g>
<g>
	<path fill="#3db58d" d="M10,0C4.5,0,0,1.4,0,3.1v2.5c0,1.7,4.5,3.1,10,3.1c5.5,0,10-1.4,10-3.1V3.1C20,1.4,15.5,0,10,0L10,0L10,0z
		 M10,10.6c-5.5,0-10-1.4-10-3.1v3.8c0,1.7,4.5,3.1,10,3.1c5.5,0,10-1.4,10-3.1V7.5C20,9.2,15.5,10.6,10,10.6L10,10.6L10,10.6z
		 M10,16.3c-5.5,0-10-1.4-10-3.1v3.7C0,18.6,4.5,20,10,20c5.5,0,10-1.4,10-3.1v-3.7C20,14.9,15.5,16.3,10,16.3L10,16.3L10,16.3z
		 M10,16.3"/>
</g>
</svg>
