<?xml version="1.0" encoding="utf-8"?>
<!-- Generator: Adobe Illustrator 18.0.0, SVG Export Plug-In . SVG Version: 6.00 Build 0)  -->
<!DOCTYPE svg PUBLIC "-//W3C//DTD SVG 1.1//EN" "http://www.w3.org/Graphics/SVG/1.1/DTD/svg11.dtd">
<svg version="1.1" id="图层_1" xmlns="http://www.w3.org/2000/svg" xmlns:xlink="http://www.w3.org/1999/xlink" x="0px" y="0px"
	 viewBox="0 0 20 20" enable-background="new 0 0 20 20" xml:space="preserve" width="20" height="20">
<g>
	<path fill="#a6a6a6" d="M9.9-274.2c-157.9,0-285.9,40-285.9,89.3v71.5C-276-64-148-24,9.9-24c157.9,0,285.9-40,285.9-89.3v-71.5
		C295.7-234.2,167.8-274.2,9.9-274.2L9.9-274.2L9.9-274.2z M9.9,29.6C-148,29.6-276-10.4-276-59.8V47.4c0,49.3,128,89.3,285.9,89.3
		c157.9,0,285.9-40,285.9-89.3V-59.8C295.7-10.4,167.8,29.6,9.9,29.6L9.9,29.6L9.9,29.6z M9.9,190.4c-157.9,0-285.9-40-285.9-89.3
		v107.2c0,49.3,128,89.3,285.9,89.3c157.9,0,285.9-40,285.9-89.3V101C295.7,150.4,167.8,190.4,9.9,190.4L9.9,190.4L9.9,190.4z
		 M9.9,190.4"/>
</g>
<g>
	<path fill="#a6a6a6" d="M5.6,16.9V6.9c0-0.4-0.3-0.7-0.7-0.7H2.9c-0.4,0-0.7,0.3-0.7,0.7v9.9H5.6L5.6,16.9L5.6,16.9z M10,16.9V2.7
		c0-0.4-0.3-0.7-0.7-0.7H7.2c-0.4,0-0.7,0.3-0.7,0.7v14.2H10L10,16.9L10,16.9z M14.4,16.9v-6.3c0-0.4-0.3-0.7-0.7-0.7h-2.1
		c-0.4,0-0.7,0.3-0.7,0.7v6.3H14.4L14.4,16.9L14.4,16.9z M18.7,16.9V6.9c0-0.4-0.3-0.7-0.7-0.7H16c-0.4,0-0.7,0.3-0.7,0.7v9.9H18.7
		L18.7,16.9L18.7,16.9z M19.4,17.8H1.3V1.6C1.3,1.3,1,1,0.6,1C0.3,1,0,1.3,0,1.6V19h19.4c0.3,0,0.6-0.3,0.6-0.6
		C20,18,19.7,17.8,19.4,17.8L19.4,17.8L19.4,17.8z M19.4,17.8"/>
</g>
</svg>
