<?xml version="1.0" encoding="utf-8"?>
<!-- Generator: Adobe Illustrator 18.0.0, SVG Export Plug-In . SVG Version: 6.00 Build 0)  -->
<!DOCTYPE svg PUBLIC "-//W3C//DTD SVG 1.1//EN" "http://www.w3.org/Graphics/SVG/1.1/DTD/svg11.dtd">
<svg version="1.1" id="图层_1" xmlns="http://www.w3.org/2000/svg" xmlns:xlink="http://www.w3.org/1999/xlink" x="0px" y="0px"
	 viewBox="0 0 20 20" enable-background="new 0 0 20 20" xml:space="preserve" width="20" height="20">
<g>
	<path fill="#3db58d" d="M10.8,2.9h8.1c0.7,0,1.2,0.5,1.2,1.2v0.6c0,0.3-0.3,0.9-0.6,0.9h-16c-0.7,0-1.2,0.5-1.2,1.2V18
		c0,0.6-0.5,1.1-1.1,1.1h0C0.5,19.1,0,18.7,0,18V1.1C0,0.5,0.5,0,1.1,0h6.8C8.4,0,8.8,0.3,9,0.7l0.6,1.5C9.8,2.6,10.3,2.9,10.8,2.9
		L10.8,2.9L10.8,2.9z M3.3,20h14.5c1.2,0,2.2-1,2.2-2.2V7.3c0-0.3-0.3-0.6-0.6-0.6H4.1C3.8,6.7,3.5,7,3.5,7.3v10.4
		c0,0.8-0.5,1.4-1,1.8C2.3,19.7,2.4,20,2.7,20H3.3L3.3,20L3.3,20z M3.3,20"/>
</g>
</svg>
