<?xml version="1.0" encoding="utf-8"?>
<!-- Generator: Adobe Illustrator 18.0.0, SVG Export Plug-In . SVG Version: 6.00 Build 0)  -->
<!DOCTYPE svg PUBLIC "-//W3C//DTD SVG 1.1//EN" "http://www.w3.org/Graphics/SVG/1.1/DTD/svg11.dtd">
<svg version="1.1" id="图层_1" xmlns="http://www.w3.org/2000/svg" xmlns:xlink="http://www.w3.org/1999/xlink" x="0px" y="0px"
	 viewBox="0 0 20 20" enable-background="new 0 0 20 20" xml:space="preserve" width="20" height="20">
<g>
	<path fill="#a6a6a6" d="M6.9,13.8c0-2.3,1.1-4.3,2.8-5.5H2.9V6.1h9.9v0.9C13,7,13.4,7,13.7,7c0.6,0,1.2,0.1,1.8,0.2V1.7
		c0-0.9-0.7-1.7-1.7-1.7H1.7C0.8,0,0,0.7,0,1.7v16.5c0,0.9,0.7,1.7,1.7,1.7h8.9C8.4,18.7,6.9,16.4,6.9,13.8z M2.9,2.8h9.9v2.1H2.9
		V2.8z"/>
	<path fill="#a6a6a6" d="M13.7,7.5c-3.4,0-6.2,2.8-6.2,6.2s2.8,6.2,6.2,6.2s6.2-2.8,6.2-6.2S17.2,7.5,13.7,7.5z M15.1,10.2
		c0.5,0,0.8,0.4,0.8,0.8c0,0.5-0.4,0.8-0.8,0.8s-0.8-0.4-0.8-0.8C14.3,10.5,14.7,10.2,15.1,10.2z M9.9,14.6c-0.5,0-0.8-0.4-0.8-0.8
		c0-0.5,0.4-0.8,0.8-0.8c0.5,0,0.8,0.4,0.8,0.8C10.7,14.2,10.3,14.6,9.9,14.6z M11.7,10.2c0.5,0,0.8,0.4,0.8,0.8
		c0,0.5-0.4,0.8-0.8,0.8c-0.5,0-0.8-0.4-0.8-0.8C10.9,10.5,11.3,10.2,11.7,10.2z M11.8,17.4c-0.5,0-0.8-0.4-0.8-0.8
		c0-0.5,0.4-0.8,0.8-0.8s0.8,0.4,0.8,0.8C12.7,17,12.3,17.4,11.8,17.4z M13.6,14.6c-0.5,0-0.8-0.4-0.8-0.8c0-0.5,0.4-0.8,0.8-0.8
		s0.8,0.4,0.8,0.8C14.4,14.2,14,14.6,13.6,14.6z M15.2,17.4c-0.5,0-0.8-0.4-0.8-0.8c0-0.5,0.4-0.8,0.8-0.8c0.5,0,0.8,0.4,0.8,0.8
		C16.1,17,15.7,17.4,15.2,17.4z M17.6,14.6c-0.5,0-0.8-0.4-0.8-0.8c0-0.5,0.4-0.8,0.8-0.8s0.8,0.4,0.8,0.8
		C18.4,14.2,18,14.6,17.6,14.6z"/>
</g>
</svg>
