<?xml version="1.0" encoding="utf-8"?>
<!-- Generator: Adobe Illustrator 18.0.0, SVG Export Plug-In . SVG Version: 6.00 Build 0)  -->
<!DOCTYPE svg PUBLIC "-//W3C//DTD SVG 1.1//EN" "http://www.w3.org/Graphics/SVG/1.1/DTD/svg11.dtd">
<svg version="1.1" id="图层_1" xmlns="http://www.w3.org/2000/svg" xmlns:xlink="http://www.w3.org/1999/xlink" x="0px" y="0px"
	 viewBox="-2 -2 20 20" enable-background="new -2 -2 20 20" xml:space="preserve" width="20" height="20">
<path fill="#000000" d="M17.3,12.3h-1.4V8c0-0.4-0.3-0.7-0.7-0.7H8.8V3.7h1.4c0.4,0,0.7-0.3,0.7-0.7v-4.3c0-0.4-0.3-0.7-0.7-0.7H5.9
	C5.5-2,5.1-1.7,5.1-1.3V3c0,0.4,0.3,0.7,0.7,0.7h1.4v3.6H0.9C0.5,7.3,0.2,7.6,0.2,8v4.3h-1.5C-1.7,12.3-2,12.6-2,13v4.3
	c0,0.4,0.3,0.7,0.7,0.7H3c0.4,0,0.7-0.3,0.7-0.7V13c0-0.4-0.3-0.7-0.7-0.7H1.6V8.7h5.7v3.6H5.9c-0.4,0-0.7,0.3-0.7,0.7v4.3
	c0,0.4,0.3,0.7,0.7,0.7h4.3c0.4,0,0.7-0.3,0.7-0.7V13c0-0.4-0.3-0.7-0.7-0.7H8.8V8.7h5.7v3.6H13c-0.4,0-0.7,0.3-0.7,0.7v4.3
	c0,0.4,0.3,0.7,0.7,0.7h4.3c0.4,0,0.7-0.3,0.7-0.7V13C18,12.6,17.7,12.3,17.3,12.3z M2.3,13.7v2.9h-2.9v-2.9H2.3z M9.4,13.7v2.9H6.6
	v-2.9H9.4z M6.6,2.3v-2.9h2.9v2.9H6.6z M16.6,16.6h-2.9v-2.9h2.9V16.6z"/>
</svg>
