<?xml version="1.0" encoding="utf-8"?>
<!-- Generator: Adobe Illustrator 19.0.0, SVG Export Plug-In . SVG Version: 6.00 Build 0)  -->
<svg version="1.1" id="图层_1" xmlns="http://www.w3.org/2000/svg" xmlns:xlink="http://www.w3.org/1999/xlink" x="0px" y="0px"
	 viewBox="-287 410.9 20 20" style="enable-background:new -287 410.9 20 20;" xml:space="preserve" width="20" height="20">
<style type="text/css">
	.st0{fill:#A6A6A6;}
</style>
<polygon id="XMLID_4_" class="st0" points="-272.8,417.3 -272.8,419.5 -271,419.5 -271,425.4 -277.9,428.4 -284.8,425.4 
	-284.8,416.1 -277.9,413.4 -271.4,415.9 -268.8,415.9 -268.8,414.6 -277.9,411 -287,414.6 -287,426.8 -277.9,430.8 -268.8,426.8 
	-268.8,419.5 -267,419.5 -267,417.3 "/>
<polygon id="XMLID_15_" class="st0" points="-280.8,425.6 -280.8,417.3 -283,417.3 -283,424.6 "/>
<path id="XMLID_7_" class="st0" d="M-276.6,417.9c-1.9,0-3.5,1.6-3.5,3.5c0,1.9,1.6,3.5,3.5,3.5s3.5-1.6,3.5-3.5
	C-273.1,419.5-274.7,417.9-276.6,417.9z M-276.6,422.8c-0.8,0-1.4-0.6-1.4-1.4c0-0.8,0.6-1.4,1.4-1.4c0.8,0,1.4,0.6,1.4,1.4
	C-275.2,422.2-275.8,422.8-276.6,422.8z"/>
</svg>
