<?xml version="1.0" encoding="utf-8"?>
<!-- Generator: Adobe Illustrator 19.0.0, SVG Export Plug-In . SVG Version: 6.00 Build 0)  -->
<svg version="1.1" id="图层_1" xmlns="http://www.w3.org/2000/svg" xmlns:xlink="http://www.w3.org/1999/xlink" x="0px" y="0px"
	 viewBox="0 0 20 20" style="enable-background:new 0 0 20 20;" xml:space="preserve" width="20" height="20">
<style type="text/css">
	.st0{fill:#040000;}
</style>
<polygon id="XMLID_4_" class="st0" points="14.2,6.4 14.2,8.6 16,8.6 16,14.5 9.1,17.5 2.2,14.5 2.2,5.2 9.1,2.5 15.6,5 18.2,5 
	18.2,3.7 9.1,0.1 0,3.7 0,15.9 9.1,19.9 18.2,15.9 18.2,8.6 20,8.6 20,6.4 "/>
<polygon id="XMLID_15_" class="st0" points="6.2,14.7 6.2,6.4 4,6.4 4,13.7 "/>
<path id="XMLID_7_" class="st0" d="M10.4,7c-1.9,0-3.5,1.6-3.5,3.5c0,1.9,1.6,3.5,3.5,3.5s3.5-1.6,3.5-3.5C13.9,8.6,12.3,7,10.4,7z
	 M10.4,11.9c-0.8,0-1.4-0.6-1.4-1.4s0.6-1.4,1.4-1.4s1.4,0.6,1.4,1.4S11.2,11.9,10.4,11.9z"/>
</svg>
