<?xml version="1.0" encoding="utf-8"?>
<!-- Generator: Adobe Illustrator 18.0.0, SVG Export Plug-In . SVG Version: 6.00 Build 0)  -->
<!DOCTYPE svg PUBLIC "-//W3C//DTD SVG 1.1//EN" "http://www.w3.org/Graphics/SVG/1.1/DTD/svg11.dtd">
<svg version="1.1" id="图层_1" xmlns="http://www.w3.org/2000/svg" xmlns:xlink="http://www.w3.org/1999/xlink" x="0px" y="0px"
	 viewBox="0 0 20 20" enable-background="new 0 0 20 20" xml:space="preserve" width="20" height="20">
<path fill="#DE5B5A" stroke="#FFFFFF" stroke-width="2.064341e-004" stroke-miterlimit="10" d="M17.3,0H2.7C1.2,0,0,1.2,0,2.7v14.6
	C0,18.8,1.2,20,2.7,20h14.6c1.5,0,2.7-1.2,2.7-2.7V2.7C20,1.2,18.8,0,17.3,0z M8.5,10.4L6,13.1c-0.2,0.2-0.5,0.2-0.7,0
	c-0.2-0.2-0.2-0.6,0-0.8l1.6-1.8H3.2c-0.3,0-0.5-0.2-0.5-0.6S3,9.4,3.2,9.4h3.7L5.3,7.6C5.2,7.5,5.2,7.4,5.2,7.2
	c0-0.1,0-0.3,0.1-0.4c0.2-0.2,0.5-0.2,0.7,0l2.4,2.8C8.6,9.8,8.6,10.2,8.5,10.4z M10.6,16.4c0,0.2-0.2,0.3-0.3,0.3H10
	c-0.2,0-0.3-0.2-0.3-0.3V3.5c0-0.2,0.2-0.3,0.3-0.3h0.2c0.2,0,0.3,0.2,0.3,0.3V16.4z M12.7,7.2l3.2-3.4l-2.3,0
	c-0.1,0-0.3-0.1-0.3-0.1c-0.1-0.1-0.1-0.2-0.1-0.4c0-0.3,0.2-0.5,0.5-0.5l3.5,0c0.3,0,0.5,0.2,0.5,0.5l0,3.6c0,0.3-0.2,0.5-0.5,0.5
	c-0.3,0-0.5-0.2-0.5-0.5l0-2.7l-3.2,3.7c-0.2,0.2-0.5,0.2-0.7,0C12.5,7.8,12.5,7.4,12.7,7.2z M17.2,16.9l-3.5-0.1
	c-0.3,0-0.5-0.2-0.5-0.5c0-0.1,0-0.3,0.1-0.4s0.2-0.1,0.3-0.1l2.3,0.1l-3.3-3.4c-0.2-0.2-0.2-0.5,0-0.7c0.2-0.2,0.5-0.2,0.7,0
	l3.3,3.4l-0.1-2.4c0-0.3,0.2-0.5,0.5-0.5c0.3,0,0.5,0.2,0.5,0.5l0.1,3.6C17.7,16.6,17.5,16.9,17.2,16.9z"/>
</svg>
