<?xml version="1.0" encoding="utf-8"?>
<!-- Generator: Adobe Illustrator 18.0.0, SVG Export Plug-In . SVG Version: 6.00 Build 0)  -->
<!DOCTYPE svg PUBLIC "-//W3C//DTD SVG 1.1//EN" "http://www.w3.org/Graphics/SVG/1.1/DTD/svg11.dtd">
<svg version="1.1" id="图层_1" xmlns="http://www.w3.org/2000/svg" xmlns:xlink="http://www.w3.org/1999/xlink" x="0px" y="0px"
	 viewBox="0 0 20 20" enable-background="new 0 0 20 20" xml:space="preserve" width="20" height="20">
<g>
	<path fill="#3db58d" d="M13.9,12.3c-0.3,0-0.6,0.2-0.8,0.6c-0.2,0.4-0.3,0.8-0.3,1.3c0,0.4,0.1,0.7,0.2,0.9
		c0.2,0.2,0.3,0.3,0.6,0.3c0.4,0,0.6-0.2,0.9-0.6c0.2-0.4,0.3-0.9,0.3-1.5c0-0.3-0.1-0.5-0.2-0.7C14.4,12.4,14.2,12.3,13.9,12.3z"/>
	<path fill="#3db58d" d="M14,7.9c-3.3,0-6,2.7-6,6c0,3.3,2.7,6,6,6s6-2.7,6-6C20,10.6,17.3,7.9,14,7.9z M17.7,15.5
		c-0.5,0.6-1.1,0.8-1.7,0.8c-0.4,0-0.6-0.1-0.9-0.3c-0.2-0.2-0.3-0.5-0.4-0.8h0c-0.3,0.7-0.7,1.1-1.4,1.1c-0.5,0-0.9-0.2-1.2-0.5
		c-0.3-0.4-0.5-0.9-0.5-1.5c0-0.8,0.2-1.5,0.6-2c0.4-0.5,0.9-0.8,1.5-0.8c0.5,0,0.9,0.2,1,0.7h0c0-0.1,0-0.2,0-0.3
		c0-0.1,0-0.2,0-0.3H16c-0.2,1.6-0.2,2.6-0.2,3c0,0.6,0.2,0.8,0.5,0.8c0.3,0,0.5-0.2,0.8-0.6c0.2-0.4,0.3-0.9,0.3-1.5
		c0-0.9-0.3-1.6-0.8-2.1c-0.6-0.6-1.3-0.8-2.3-0.8c-1,0-1.9,0.4-2.6,1.1c-0.7,0.7-1,1.6-1,2.7c0,1,0.3,1.8,0.9,2.4
		c0.6,0.6,1.5,0.9,2.5,0.9c0.8,0,1.6-0.2,2.2-0.5v1c-0.6,0.3-1.4,0.4-2.4,0.4c-1.3,0-2.4-0.4-3.2-1.2c-0.8-0.8-1.2-1.8-1.2-3.1
		c0-1.3,0.4-2.4,1.3-3.3c0.9-0.9,2-1.3,3.4-1.3c1.3,0,2.3,0.3,3.1,1c0.8,0.7,1.2,1.6,1.2,2.8C18.4,14.2,18.2,14.9,17.7,15.5z"/>
	<path fill="#3db58d" d="M7.4,13.9c0-2.5,1.3-4.6,3.3-5.8H2.5V6h11.7v1.2c0.8,0,1.6,0.2,2.3,0.4V2.1c0-1.1-0.9-2-2-2H2
		c-1.1,0-2,0.9-2,2v15.6c0,1.1,0.9,2,2,2h8.6C8.6,18.5,7.4,16.3,7.4,13.9z M2.5,2.6h11.7v2.2H2.5V2.6z"/>
</g>
</svg>
