<?xml version="1.0" encoding="utf-8"?>
<!-- Generator: Adobe Illustrator 18.0.0, SVG Export Plug-In . SVG Version: 6.00 Build 0)  -->
<!DOCTYPE svg PUBLIC "-//W3C//DTD SVG 1.1//EN" "http://www.w3.org/Graphics/SVG/1.1/DTD/svg11.dtd">
<svg version="1.1" id="图层_1" xmlns="http://www.w3.org/2000/svg" xmlns:xlink="http://www.w3.org/1999/xlink" x="0px" y="0px"
	 viewBox="0 0 20 20" enable-background="new 0 0 20 20" xml:space="preserve" width="20" height="20">
<g>
	<path fill="#E4B347" d="M20,2.7L9.2,0.1v0l0,0l0,0v0L0,2.7v13.4l9.2,3.8v0l0,0l0,0v0L20,16.1V2.7z M4.8,12.4
		c-1.7,0-3.1-1.4-3.1-3.1s1.4-3.1,3.1-3.1s3.1,1.4,3.1,3.1S6.5,12.4,4.8,12.4z M19.4,15.6L9.8,19V0.9l9.6,2.4V15.6z"/>
	<g>
		
			<ellipse transform="matrix(-0.5496 0.8354 -0.8354 -0.5496 28.3676 -3.4049)" fill="#E4B347" cx="15.1" cy="5.9" rx="1.1" ry="1"/>
		<ellipse transform="matrix(-0.5496 0.8354 -0.8354 -0.5496 34.3601 -2.8796)" fill="#E4B347" cx="18" cy="7.8" rx="1.1" ry="1"/>
		
			<ellipse transform="matrix(-0.5496 0.8354 -0.8354 -0.5496 27.3849 7.8837)" fill="#E4B347" cx="11.6" cy="11.3" rx="1.1" ry="1"/>
		
			<ellipse transform="matrix(-0.5496 0.8354 -0.8354 -0.5496 33.3774 8.4091)" fill="#E4B347" cx="14.4" cy="13.2" rx="1.1" ry="1"/>
		<ellipse transform="matrix(-0.5496 0.8354 -0.8354 -0.5496 24.8904 1.8973)" fill="#E4B347" cx="11.9" cy="7.7" rx="1.1" ry="1"/>
		<ellipse transform="matrix(-0.5496 0.8354 -0.8354 -0.5496 30.8829 2.4226)" fill="#E4B347" cx="14.8" cy="9.5" rx="1.1" ry="1"/>
		
			<ellipse transform="matrix(-0.5496 0.8354 -0.8354 -0.5496 36.5771 2.9217)" fill="#E4B347" cx="17.5" cy="11.3" rx="1.1" ry="1"/>
	</g>
</g>
</svg>
