<?xml version="1.0" encoding="utf-8"?>
<!-- Generator: Adobe Illustrator 18.0.0, SVG Export Plug-In . SVG Version: 6.00 Build 0)  -->
<!DOCTYPE svg PUBLIC "-//W3C//DTD SVG 1.1//EN" "http://www.w3.org/Graphics/SVG/1.1/DTD/svg11.dtd">
<svg version="1.1" id="图层_1" xmlns="http://www.w3.org/2000/svg" xmlns:xlink="http://www.w3.org/1999/xlink" x="0px" y="0px"
	 viewBox="0 0 20 20" enable-background="new 0 0 20 20" xml:space="preserve" width="20" height="20">
<g>
	<path fill="#3db58d" d="M20,2.7L9.2,0l0,0l0,0l0,0l0,0L0,2.7v13.4l9.2,3.7l0,0l0,0l0,0l0,0L20,16V2.7z M4.8,12.4
		c-1.7,0-3.1-1.4-3.1-3.1s1.4-3.1,3.1-3.1s3.1,1.4,3.1,3.1S6.5,12.4,4.8,12.4z M19.4,15.6l-9.6,3.4V0.8l9.6,2.4V15.6z"/>
	<ellipse transform="matrix(0.5496 -0.8354 0.8354 0.5496 1.831 15.2656)" fill="#3db58d" cx="15.1" cy="5.9" rx="1.1" ry="1"/>
	<ellipse transform="matrix(0.5496 -0.8354 0.8354 0.5496 1.5549 18.4995)" fill="#3db58d" cx="17.9" cy="7.8" rx="1.1" ry="1"/>
	<ellipse transform="matrix(0.5496 -0.8354 0.8354 0.5496 -4.3 14.8171)" fill="#3db58d" cx="11.6" cy="11.4" rx="1.1" ry="1"/>
	<ellipse transform="matrix(0.5496 -0.8354 0.8354 0.5496 -4.5763 18.0509)" fill="#3db58d" cx="14.5" cy="13.3" rx="1.1" ry="1"/>
	<ellipse transform="matrix(0.5496 -0.8354 0.8354 0.5496 -0.9933 13.4097)" fill="#3db58d" cx="11.9" cy="7.6" rx="1.1" ry="1"/>
	<ellipse transform="matrix(0.5496 -0.8354 0.8354 0.5496 -1.2694 16.6437)" fill="#3db58d" cx="14.8" cy="9.5" rx="1.1" ry="1"/>
	<ellipse transform="matrix(0.5496 -0.8354 0.8354 0.5496 -1.5302 19.7586)" fill="#3db58d" cx="17.6" cy="11.3" rx="1.1" ry="1"/>
</g>
</svg>
