<?xml version="1.0" encoding="utf-8"?>
<!-- Generator: Adobe Illustrator 18.0.0, SVG Export Plug-In . SVG Version: 6.00 Build 0)  -->
<!DOCTYPE svg PUBLIC "-//W3C//DTD SVG 1.1//EN" "http://www.w3.org/Graphics/SVG/1.1/DTD/svg11.dtd">
<svg version="1.1" id="图层_1" xmlns="http://www.w3.org/2000/svg" xmlns:xlink="http://www.w3.org/1999/xlink" x="0px" y="0px"
	 viewBox="0 0 20 20" enable-background="new 0 0 20 20" xml:space="preserve" width="20" height="20">
<g>
	<path fill="#a6a6a6" d="M13.4,0"/>
	<g>
		<path fill="#a6a6a6" d="M15.6,6.4c-0.5,0-0.9-0.2-1.2-0.5c-0.3-0.3-0.5-0.7-0.6-1.2L13.3,0L20,6.1l-4.2,0.4
			C15.7,6.4,15.7,6.4,15.6,6.4z M13.6,0.3l0.4,4.4c0.1,0.9,0.8,1.6,1.7,1.6c0,0,0.1,0,0.1,0l4-0.3L13.6,0.3z"/>
	</g>
	<g>
		<path fill="#a6a6a6" d="M16.1,8.4c-0.3,0-0.5,0.2-0.7,0.5c-0.2,0.4-0.3,0.9-0.3,1.5c0,0.6,0.1,1,0.2,1.3c0.2,0.3,0.4,0.5,0.7,0.5
			c0.3,0,0.5-0.2,0.7-0.5c0.2-0.3,0.3-0.8,0.3-1.3V9.9c0-0.4-0.1-0.8-0.3-1.1C16.6,8.5,16.4,8.4,16.1,8.4z"/>
		<path fill="#a6a6a6" d="M3.7,6H3.2v2.9h0.5c0.7,0,1.1-0.5,1.1-1.5C4.8,6.5,4.5,6,3.7,6z"/>
		<path fill="#a6a6a6" d="M20,6.1l-4.2,0.3c-1,0.1-1.9-0.7-2-1.7L13.4,0L1.8,0C0.8,0,0,0.8,0,1.8v16.4c0,1,0.8,1.8,1.8,1.8h16.4
			c1,0,1.8-0.8,1.8-1.8L20,6.1L20,6.1z M5.5,9.6c-0.4,0.6-1,0.8-1.6,0.8H3.2v3.1H1.9v-9h2c1.4,0,2.2,0.9,2.2,2.8
			C6.1,8.3,5.9,9,5.5,9.6z M8.1,13.5H6.9V7.1h1.2V13.5z M8.2,5.8C8,5.9,7.8,6,7.5,6C7.2,6,6.9,5.9,6.7,5.8C6.5,5.6,6.4,5.3,6.4,5.1
			c0-0.3,0.1-0.5,0.3-0.7c0.2-0.2,0.4-0.3,0.8-0.3c0.3,0,0.6,0.1,0.8,0.3c0.2,0.2,0.3,0.4,0.3,0.7C8.5,5.3,8.4,5.6,8.2,5.8z
			 M13.1,13.5h-1.2V10c0-1-0.2-1.6-0.7-1.6c-0.2,0-0.4,0.1-0.6,0.4c-0.2,0.3-0.2,0.6-0.2,1.1v3.7H9.2V7.1h1.2v1h0
			C10.7,7.4,11.1,7,11.7,7c0.9,0,1.4,0.9,1.4,2.6V13.5z M18.2,12.8c0,1.2-0.2,2.1-0.7,2.7c-0.4,0.6-1.1,1-1.9,1
			c-0.6,0-1-0.1-1.3-0.4v-1.6c0.4,0.4,0.9,0.6,1.3,0.6c0.4,0,0.8-0.2,1-0.5c0.2-0.4,0.4-0.9,0.4-1.5v-0.5h0
			c-0.3,0.7-0.7,1.1-1.3,1.1c-0.5,0-0.9-0.3-1.3-0.9c-0.3-0.6-0.5-1.3-0.5-2.3c0-1.1,0.2-1.9,0.5-2.6c0.3-0.6,0.8-1,1.4-1
			c0.5,0,0.9,0.3,1.2,0.9h0V7.1h1.2V12.8z"/>
	</g>
</g>
</svg>
