<?xml version="1.0" encoding="utf-8"?>
<!-- Generator: Adobe Illustrator 18.0.0, SVG Export Plug-In . SVG Version: 6.00 Build 0)  -->
<!DOCTYPE svg PUBLIC "-//W3C//DTD SVG 1.1//EN" "http://www.w3.org/Graphics/SVG/1.1/DTD/svg11.dtd">
<svg version="1.1" id="图层_1" xmlns="http://www.w3.org/2000/svg" xmlns:xlink="http://www.w3.org/1999/xlink" x="0px" y="0px"
	 viewBox="0 0 20 20" enable-background="new 0 0 20 20" xml:space="preserve" width="20" height="20">
<g>
	<g>
		<path fill="#3db58d" d="M6.8,6.8C6.8,6.8,6.8,6.8,6.8,6.8L6.8,6.8C6.8,6.8,6.8,6.8,6.8,6.8z M18.2,2.4c-0.1-0.6-0.3-1.8-1.7-1.8
			H3.7C2.3,0.6,1.9,2,1.8,2.5L0,14.2h20L18.2,2.4z M12.3,10.6H7.2c-1.1,0-2-0.7-2-1.6c0-0.7,0.6-1.4,1.4-1.6c0-0.1-0.1-0.3-0.1-0.4
			c0-0.8,0.8-1.5,1.8-1.5c0.1,0,0.3,0,0.4,0C9.2,5,9.9,4.7,10.7,4.7c1.3,0,2.3,0.9,2.3,2c0,0,0,0.1,0,0.1c0.9,0.3,1.6,1,1.6,1.8
			C14.6,9.7,13.6,10.6,12.3,10.6z M3.8,19.4h12.5c2.1,0,3.7-2.7,3.7-4.8H0C0,16.7,1.7,19.4,3.8,19.4z M16.9,15.5
			c0.5,0,0.9,0.4,0.9,0.9c0,0.5-0.4,0.9-0.9,0.9c-0.5,0-1-0.4-1-0.9C15.9,16,16.4,15.5,16.9,15.5z"/>
	</g>
</g>
</svg>
