<?xml version="1.0" encoding="utf-8"?>
<!-- Generator: Adobe Illustrator 18.0.0, SVG Export Plug-In . SVG Version: 6.00 Build 0)  -->
<!DOCTYPE svg PUBLIC "-//W3C//DTD SVG 1.1//EN" "http://www.w3.org/Graphics/SVG/1.1/DTD/svg11.dtd">
<svg version="1.1" id="图层_1" xmlns="http://www.w3.org/2000/svg" xmlns:xlink="http://www.w3.org/1999/xlink" x="0px" y="0px"
	 viewBox="0 0 20 20" enable-background="new 0 0 20 20" xml:space="preserve" width="20" height="20">
<g>
	<path d="M2.7,20h14.6"/>
</g>
<g>
	<path d="M19.4,17.2l-2.7-3.5H3.3l-2.7,3.5C0,18-0.2,18.8,0.3,18.8h19.4C20.2,18.9,20,18.1,19.4,17.2z"/>
	<path d="M19.4,11.9l-2.7-3.5H3.3l-2.7,3.5c-0.6,0.8-0.8,1.6-0.3,1.6h19.4C20.2,13.5,20,12.7,19.4,11.9z"/>
	<path d="M19.7,8.1H0.3c-0.5,0-0.3-0.7,0.3-1.4L5,1.5c0.2-0.2,0.5-0.3,0.7-0.3h8.6c0.2,0,0.5,0.1,0.7,0.3l4.4,5.2
		C20,7.4,20.2,8.1,19.7,8.1z"/>
</g>
</svg>
