<?xml version="1.0" encoding="utf-8"?>
<!-- Generator: Adobe Illustrator 18.0.0, SVG Export Plug-In . SVG Version: 6.00 Build 0)  -->
<!DOCTYPE svg PUBLIC "-//W3C//DTD SVG 1.1//EN" "http://www.w3.org/Graphics/SVG/1.1/DTD/svg11.dtd">
<svg version="1.1" id="图层_1" xmlns="http://www.w3.org/2000/svg" xmlns:xlink="http://www.w3.org/1999/xlink" x="0px" y="0px"
	 viewBox="0 0 20 20" enable-background="new 0 0 20 20" xml:space="preserve" width="20" height="20">
<g>
	<path fill="#3db58d" d="M19.6,6.1l0.2,0l-6.5-5.9l0-0.2l-0.2,0l0,0l0,0L1.8,0C0.8,0,0,0.8,0,1.8v16.4c0,1,0.8,1.8,1.8,1.8h16.4
		c1,0,1.8-0.8,1.8-1.8V6.1l0,0L19.6,6.1z M13.4,0.3L19.6,6l-4,0.3c0,0-0.1,0-0.1,0c-0.3,0-0.5-0.1-0.7-0.2c0,0,0,0,0,0v0
		c-0.5-0.3-0.9-0.8-1-1.4h0c0,0,0,0,0-0.1l-0.1-1.2L13.4,0.3z M7.6,11.1c0,3.3-0.7,5-2.2,5c-1.4,0-2.1-1.6-2.1-4.8V4.8h1.1v6.5
		c0,1.8,0.3,2.8,1,2.8c0.7,0,1-0.9,1-2.7V4.8h1.1V11.1z M11.8,15.8L11,13c-0.2-0.6-0.3-1-0.4-1.2c-0.1-0.2-0.2-0.3-0.3-0.3H9.9v4.3
		H8.7V4.8h1.9c1.3,0,1.9,1,1.9,3c0,0.8-0.1,1.4-0.3,1.9c-0.2,0.5-0.5,0.9-0.9,1.1v0c0.2,0.2,0.5,0.7,0.8,1.7l1,3.3H11.8z M16.8,15.8
		h-3.1V4.8h0l0,0c0,0.5,0.2,0.9,0.6,1.2c0.1,0.1,0.3,0.2,0.5,0.3v7.6h2V15.8z"/>
	<path fill="#3db58d" d="M10.5,6.5H9.9v3.2h0.6c0.3,0,0.5-0.2,0.6-0.5c0.2-0.3,0.2-0.7,0.2-1.2C11.3,7,11,6.5,10.5,6.5z"/>
</g>
</svg>
