<?xml version="1.0" encoding="utf-8"?>
<!-- Generator: Adobe Illustrator 18.0.0, SVG Export Plug-In . SVG Version: 6.00 Build 0)  -->
<!DOCTYPE svg PUBLIC "-//W3C//DTD SVG 1.1//EN" "http://www.w3.org/Graphics/SVG/1.1/DTD/svg11.dtd">
<svg version="1.1" id="图层_1" xmlns="http://www.w3.org/2000/svg" xmlns:xlink="http://www.w3.org/1999/xlink" x="0px" y="0px"
	 viewBox="0 0 20 20" enable-background="new 0 0 20 20" xml:space="preserve" width="20" height="20">
<g>
	<path fill="#edb845" d="M18.2,4.8h-2.1V2.1c0-1-0.8-1.8-1.8-1.8H6.1c-1,0-1.8,0.8-1.8,1.8v4.5H1.4C0.6,6.6,0,7.2,0,8v10.3
		c0,0.8,0.6,1.4,1.4,1.4h9.6c0.8,0,1.4-0.6,1.4-1.4v-1.1h5.7c1,0,1.8-0.8,1.8-1.8V6.6C20,5.6,19.2,4.8,18.2,4.8z M5,2.1
		C5,1.5,5.5,1,6.1,1h8.2c0.6,0,1.1,0.5,1.1,1.1v2.8H10c-1,0-1.8,0.8-1.8,1.8H5V2.1z M11.1,6.6H8.9c0-0.6,0.5-1,1.1-1h5.4v5.3
		c0,0.6-0.5,1.1-1.1,1.1h-1.8V8C12.5,7.2,11.9,6.6,11.1,6.6z M19.3,15.4c0,0.6-0.5,1.1-1.1,1.1h-5.7v-3.8h1.8c1,0,1.8-0.8,1.8-1.8
		V5.6h2.1c0.6,0,1.1,0.5,1.1,1.1V15.4z"/>
</g>
</svg>
