<?xml version="1.0" encoding="utf-8"?>
<!-- Generator: Adobe Illustrator 18.0.0, SVG Export Plug-In . SVG Version: 6.00 Build 0)  -->
<!DOCTYPE svg PUBLIC "-//W3C//DTD SVG 1.1//EN" "http://www.w3.org/Graphics/SVG/1.1/DTD/svg11.dtd">
<svg version="1.1" id="图层_1" xmlns="http://www.w3.org/2000/svg" xmlns:xlink="http://www.w3.org/1999/xlink" x="0px" y="0px"
	 viewBox="0 0 20 20" enable-background="new 0 0 20 20" xml:space="preserve" width="20" height="20">
<path fill="#edb845" d="M19.6,17.7h-0.5V1.9c0-0.9-0.7-1.6-1.6-1.6H2.5c-0.9,0-1.6,0.7-1.6,1.6v15.8H0.4c-0.2,0-0.4,0.2-0.4,0.4v1.1
	c0,0.2,0.2,0.4,0.4,0.4h19.2c0.2,0,0.4-0.2,0.4-0.4v-1.1C20,17.9,19.8,17.7,19.6,17.7z M13.6,3.3h3.2v3.2h-3.2V3.3z M13.6,8h3.2v3.2
	h-3.2V8z M13.6,12.8h3.2V16h-3.2V12.8z M8.4,3.3h3.2v3.2H8.4V3.3z M8.4,8h3.2v3.2H8.4V8z M8.4,12.8h3.2V16H8.4V12.8z M3.3,3.3h3.2
	v3.2H3.3V3.3z M3.3,8h3.2v3.2H3.3V8z M3.3,12.8h3.2V16H3.3V12.8z"/>
</svg>
