<?xml version="1.0" encoding="utf-8"?>
<!-- Generator: Adobe Illustrator 18.0.0, SVG Export Plug-In . SVG Version: 6.00 Build 0)  -->
<!DOCTYPE svg PUBLIC "-//W3C//DTD SVG 1.1//EN" "http://www.w3.org/Graphics/SVG/1.1/DTD/svg11.dtd">
<svg version="1.1" id="图层_1" xmlns="http://www.w3.org/2000/svg" xmlns:xlink="http://www.w3.org/1999/xlink" x="0px" y="0px"
	 viewBox="0 0 20 20" enable-background="new 0 0 20 20" xml:space="preserve" width="20" height="20">
<g>
	<g>
		<path fill="#a6a6a6" d="M7.4,13.9c0-2.5,1.3-4.6,3.3-5.8H2.5V6h11.7v1.2c0.8,0,1.6,0.2,2.3,0.4V2.1c0-1.1-0.9-2-2-2H2
			c-1.1,0-2,0.9-2,2v15.6c0,1.1,0.9,2,2,2h8.6C8.7,18.5,7.4,16.3,7.4,13.9z M2.5,2.6h11.7v2.2H2.5V2.6z M14,7.9c-3.3,0-6,2.7-6,6
			s2.7,6,6,6c3.3,0,6-2.7,6-6S17.3,7.9,14,7.9z M16.6,17.6H15L14.2,13c-0.1-0.4-0.1-0.7-0.1-0.8h0c0,0.1,0,0.4-0.1,0.8L13,17.6h-1.6
			l-1.5-7.1h1.5l0.8,4.9c0.1,0.5,0.1,0.7,0.1,0.8h0c0-0.1,0-0.3,0.1-0.6l1-5h1.5l0.9,5c0.1,0.3,0.1,0.5,0.1,0.6h0
			c0-0.1,0-0.3,0.1-0.7l0.7-4.9h1.4L16.6,17.6z"/>
	</g>
</g>
</svg>
